<?xml version="1.0" encoding="utf-8"?>
<!-- Generator: Adobe Illustrator 23.0.5, SVG Export Plug-In . SVG Version: 6.00 Build 0)  -->
<svg version="1.1" id="Слой_1" xmlns="http://www.w3.org/2000/svg" xmlns:xlink="http://www.w3.org/1999/xlink" x="0px" y="0px"
	 viewBox="0 0 448 1080" style="enable-background:new 0 0 448 1080;" xml:space="preserve">
<g>
	<path d="M87.919,174.047l6.552,1.696l-25.316,33.163c-2.849,3.725-5.887,6.174-9.116,7.346c-3.229,1.172-6.789,1.131-10.678-0.124
		l1.552-5.994c2.622,0.976,4.909,1.147,6.858,0.511c1.95-0.635,3.819-2.11,5.607-4.424l0.777-0.989l-7.463-39.267l6.552,1.696
		l5.749,31.237L87.919,174.047z"/>
	<path d="M127.208,221.191c3.255,2.817,4.233,6.16,2.933,10.026c-0.964,2.866-2.917,4.906-5.857,6.121
		c-2.941,1.214-6.503,1.117-10.689-0.291c-6.824-2.295-10.479-6.563-10.963-12.803l5.969-1.259c0.064,4.175,2.372,7.026,6.921,8.557
		c2.274,0.765,4.202,0.87,5.783,0.312c1.58-0.557,2.63-1.609,3.15-3.156c0.459-1.365,0.322-2.651-0.411-3.86
		c-0.733-1.208-1.964-2.104-3.692-2.685l-4.982-1.676l1.813-5.391l3.685,1.239c1.729,0.582,3.212,0.613,4.451,0.092
		c1.239-0.52,2.103-1.508,2.592-2.964c0.49-1.456,0.33-2.826-0.479-4.111c-0.81-1.285-2.192-2.257-4.147-2.915
		c-3.821-1.285-6.958-0.542-9.409,2.229l-3.904-4.428c4.094-4.193,9.144-5.28,15.15-3.261c3.73,1.255,6.354,3.201,7.874,5.839
		c1.518,2.637,1.811,5.345,0.877,8.119C132.709,218.383,130.488,220.472,127.208,221.191z"/>
	<path d="M187.192,229.405l5.49,3.016l-17.331,31.554l-5.49-3.016l7.244-13.189l-16.345-8.977l-7.245,13.189l-5.49-3.016
		l17.331-31.554l5.491,3.016l-7.21,13.126l16.345,8.978L187.192,229.405z"/>
	<path d="M241.65,273.761l4.403,4.455l-25.604,25.307l-4.403-4.455l4.404-4.353c-5.574,1.121-10.452-0.435-14.636-4.667
		c-3.543-3.584-5.258-7.931-5.143-13.038c0.114-5.108,2.049-9.517,5.804-13.229c3.756-3.711,8.187-5.596,13.296-5.65
		c5.108-0.055,9.435,1.71,12.978,5.294c4.184,4.232,5.683,9.129,4.497,14.689L241.65,273.761z M210.673,286.359
		c2.564,2.594,5.586,3.894,9.065,3.897c3.479,0.003,6.516-1.277,9.11-3.842c2.594-2.564,3.91-5.586,3.947-9.065
		c0.037-3.479-1.227-6.516-3.791-9.11c-2.53-2.56-5.535-3.842-9.014-3.845c-3.48-0.002-6.517,1.278-9.11,3.842
		c-2.595,2.565-3.911,5.586-3.948,9.065C206.896,280.78,208.143,283.799,210.673,286.359z"/>
	<path d="M264.447,333.5c1.06,3.859,0.001,7.028-3.18,9.507c-2.348,1.83-4.881,2.541-7.601,2.136
		c-2.721-0.405-5.216-2.066-7.488-4.981l-11.065-14.197l28.395-22.13l10.181,13.061c2.213,2.839,3.214,5.588,3.004,8.248
		c-0.21,2.658-1.47,4.888-3.778,6.688C270.188,333.955,267.365,334.512,264.447,333.5z M250.444,336.381
		c1.121,1.438,2.324,2.28,3.611,2.525c1.285,0.245,2.554-0.119,3.804-1.093c1.173-0.914,1.788-2.019,1.847-3.311
		c0.057-1.292-0.475-2.658-1.596-4.097l-7.082-9.086l-7.666,5.976L250.444,336.381z M269.081,320.12l-6.24-8.007l-7.439,5.798
		l6.241,8.007c2.241,2.877,4.632,3.328,7.168,1.351C271.233,325.381,271.323,322.997,269.081,320.12z"/>
	<path d="M325.384,355.552l5.668,2.667l-15.328,32.574l-5.668-2.667l2.637-5.603c-4.847,2.971-9.963,3.189-15.348,0.656
		c-4.561-2.146-7.666-5.637-9.316-10.471c-1.651-4.835-1.352-9.641,0.896-14.419c2.248-4.777,5.761-8.071,10.538-9.881
		s9.446-1.642,14.007,0.504c5.385,2.534,8.478,6.615,9.278,12.244L325.384,355.552z M300.637,378.043
		c3.3,1.553,6.584,1.733,9.853,0.538c3.267-1.194,5.678-3.441,7.23-6.743c1.554-3.3,1.749-6.59,0.587-9.87
		c-1.163-3.279-3.396-5.696-6.695-7.249c-3.258-1.533-6.521-1.702-9.787-0.508c-3.269,1.195-5.679,3.443-7.231,6.743
		c-1.554,3.301-1.749,6.591-0.586,9.87C295.169,374.105,297.379,376.51,300.637,378.043z"/>
	<path d="M382.714,366.448l5.006,0.585l-4.181,35.756l-6.149-0.719l2.935-25.101l-22.744,22.785l-5.006-0.585l4.181-35.756
		l6.149,0.719l-2.935,25.101L382.714,366.448z M363.246,358.735l0.635-5.435l19.309,2.257l-0.635,5.435L363.246,358.735z"/>
</g>
<g>
	<path d="M319.143,984.281l-2.547,5.624l-25.29,5.485l18.926,8.569l-2.209,4.88l-18.927-8.569l12.562,22.625l-2.521,5.57
		l-13.441-23.982l-25.747,5.598l2.521-5.57l24.206-5.338l-18.081-8.187l2.209-4.881l18.081,8.188l-11.957-21.713l2.547-5.623
		l12.755,23.099L319.143,984.281z"/>
	<path d="M317.556,934.702l2.496-3.222l24.442,18.932l-3.065,3.958l-17.159-13.289l7.283,26.042l-2.497,3.222l-24.442-18.931
		l3.066-3.96l17.159,13.29L317.556,934.702z"/>
	<path d="M362.842,911.229c3.128-0.945,5.817-0.104,8.073,2.523c1.665,1.939,2.415,4.052,2.254,6.336
		c-0.161,2.285-1.377,4.4-3.645,6.348l-11.047,9.479l-20.135-23.463l10.162-8.722c2.21-1.895,4.421-2.774,6.636-2.638
		s4.141,1.159,5.778,3.067C362.852,906.413,363.492,908.769,362.842,911.229z M351.47,907.544l-6.231,5.347l5.276,6.147l6.229-5.347
		c2.239-1.921,2.459-3.93,0.66-6.025C355.687,905.664,353.707,905.623,351.47,907.544z M366.12,922.919
		c1.121-0.961,1.74-1.982,1.861-3.063c0.12-1.081-0.262-2.139-1.148-3.171c-0.831-0.969-1.785-1.469-2.858-1.498
		c-1.073-0.028-2.17,0.437-3.29,1.396l-7.068,6.067l5.436,6.335L366.12,922.919z"/>
	<path d="M394.884,872.909l3.567-1.971l14.945,27.065l-4.384,2.42l-10.491-19l-3.628,26.796l-3.567,1.971l-14.945-27.064
		l4.384-2.421l10.491,19L394.884,872.909z"/>
</g>
<g>
	<path d="M83.212,410.304l-16.504,47.621l-6.327-2.192l14.429-41.636l-21.906-7.591l-14.429,41.635l-6.327-2.192l16.504-47.622
		L83.212,410.304z"/>
	<path d="M129.915,448.574l5.904,3.158l-30.983,26.785c-3.279,2.872-6.65,4.594-10.112,5.165c-3.462,0.569-6.703-0.088-9.722-1.975
		l2.75-5.143c3.735,2.378,7.724,1.79,11.967-1.765l1.119-0.871l3.237-39.176l5.84,3.123l-2.455,30.695L129.915,448.574z"/>
	<path d="M179.564,484.388l-3.817,4.692l-9.496-7.723l-18.898,23.237l-4.859-3.952l18.898-23.237l-9.552-7.769l3.816-4.692
		L179.564,484.388z"/>
	<path d="M186.1,521.359c-2.196,2.431-3.304,5.111-3.323,8.039c-0.021,2.928,0.994,5.754,3.042,8.478
		c2.856,3.798,6.333,5.507,10.432,5.127l0.786,6.075c-6.442,0.46-11.782-2.13-16.023-7.769c-3.434-4.565-4.796-9.352-4.087-14.358
		c0.708-5.008,3.25-9.155,7.623-12.444c4.334-3.261,8.994-4.572,13.978-3.936c4.982,0.636,9.146,3.18,12.494,7.63
		c3.173,4.219,4.276,8.78,3.308,13.683c-0.968,4.902-3.542,8.926-7.723,12.07c-0.729,0.548-1.521,1.053-2.374,1.516L186.1,521.359z
		 M206.303,521.75c-2.02-2.687-4.451-4.341-7.292-4.966c-2.844-0.625-5.688-0.197-8.538,1.286l14.454,19.219
		c2.405-2.47,3.67-5.102,3.791-7.896C208.839,526.6,208.034,524.052,206.303,521.75z"/>
	<path d="M249.144,604.813l1.658,6.039l-34.713,9.54l-13.069-47.558l34.714-9.538l1.661,6.039l-28.952,7.955l4.045,14.72
		l28.952-7.956l1.658,6.04l-28.951,7.955l4.045,14.719L249.144,604.813z"/>
	<path d="M230.615,649.81c-3.266,0.273-5.905,1.474-7.921,3.598c-2.017,2.123-3.207,4.879-3.573,8.268
		c-0.51,4.725,0.86,8.35,4.112,10.873l-3.578,4.973c-5.018-4.067-7.146-9.607-6.389-16.622c0.614-5.681,2.89-10.105,6.83-13.276
		c3.938-3.172,8.629-4.463,14.068-3.874c5.394,0.582,9.692,2.809,12.895,6.679s4.505,8.573,3.907,14.109
		c-0.567,5.249-2.88,9.332-6.937,12.249c-4.057,2.918-8.687,4.096-13.888,3.534c-0.907-0.099-1.829-0.271-2.769-0.517
		L230.615,649.81z M245.097,663.901c0.361-3.34-0.282-6.21-1.931-8.608c-1.648-2.399-4.019-4.032-7.11-4.896l-2.584,23.908
		c3.444-0.159,6.166-1.217,8.165-3.174C243.633,669.175,244.787,666.766,245.097,663.901z"/>
	<path d="M199.173,714.925c2.02-5.035,5.382-8.547,10.086-10.538s9.551-1.985,14.541,0.018c4.987,2.001,8.493,5.349,10.516,10.039
		c2.021,4.691,2.023,9.553,0.004,14.588c-1.323,3.295-3.304,5.94-5.939,7.934c-2.637,1.994-5.551,3.1-8.741,3.319l-0.849-6.004
		c2.121-0.133,4.07-0.862,5.845-2.193c1.776-1.331,3.11-3.108,4.005-5.336c1.341-3.341,1.326-6.593-0.042-9.754
		c-1.368-3.16-3.746-5.421-7.132-6.779c-3.342-1.341-6.599-1.344-9.773-0.005c-3.175,1.336-5.434,3.676-6.774,7.018
		c-0.893,2.227-1.175,4.442-0.843,6.645c0.331,2.2,1.201,4.128,2.606,5.777l-4.857,3.792c-2.056-2.481-3.338-5.375-3.847-8.682
		C197.471,721.456,197.868,718.175,199.173,714.925z"/>
	<path d="M196.98,791.457l-4.941-3.488l7.06-10l-24.467-17.276l3.613-5.116l24.467,17.275l7.102-10.058l4.941,3.489L196.98,791.457z
		"/>
	<path d="M148.335,816.016c-3.759,1.375-7.004,0.579-9.736-2.387c-2.017-2.188-2.934-4.655-2.754-7.398
		c0.18-2.745,1.63-5.369,4.348-7.873l13.239-12.195l24.391,26.478l-12.18,11.22c-2.647,2.439-5.305,3.663-7.972,3.673
		c-2.667,0.01-4.993-1.063-6.976-3.216C148.354,821.774,147.566,819.007,148.335,816.016z M144.312,802.297
		c-1.341,1.235-2.081,2.505-2.22,3.807c-0.138,1.302,0.329,2.535,1.402,3.7c1.007,1.096,2.159,1.618,3.452,1.569
		c1.292-0.05,2.61-0.691,3.952-1.927l8.473-7.806l-6.585-7.148L144.312,802.297z M162.05,819.533l7.467-6.877l-6.39-6.938
		l-7.467,6.879c-2.683,2.471-2.936,4.89-0.756,7.255C156.984,822.111,159.368,822.005,162.05,819.533z"/>
	<path d="M111.357,863.405l-5.676,3.552l-7.829-40.2c-0.861-4.272-0.679-8.054,0.548-11.341c1.227-3.288,3.41-5.772,6.548-7.452
		l3.093,4.943c-3.921,2.058-5.395,5.811-4.42,11.259l0.199,1.405l32.379,22.291l-5.615,3.513l-25.409-17.395L111.357,863.405z"/>
	<path d="M57.425,889.319l-4.642,1.963l-14.019-33.159l5.704-2.411l9.84,23.277l8.53-31.042l4.643-1.963l14.017,33.158l-5.703,2.411
		l-9.84-23.277L57.425,889.319z M78.162,886.415l2.132,5.04l-17.906,7.57l-2.13-5.04L78.162,886.415z"/>
</g>
</svg>
