<?xml version="1.0" encoding="utf-8"?>
<!-- Generator: Adobe Illustrator 23.0.5, SVG Export Plug-In . SVG Version: 6.00 Build 0)  -->
<svg version="1.1" id="Слой_1" xmlns="http://www.w3.org/2000/svg" xmlns:xlink="http://www.w3.org/1999/xlink" x="0px" y="0px"
	 viewBox="0 0 448 1080" style="enable-background:new 0 0 448 1080;" xml:space="preserve">
<g>
	<path d="M354.547,932.87c7.62,0.419,13.772,3.281,18.456,8.586c4.684,5.305,6.824,11.624,6.421,18.957
		c-0.403,7.333-3.223,13.379-8.46,18.138c-5.237,4.76-11.666,6.93-19.287,6.511c-4.601-0.253-8.769-1.589-12.507-4.005
		c-3.735-2.417-6.58-5.554-8.532-9.41l6.009-3.059c1.284,2.858,3.308,5.194,6.068,7.004c2.761,1.811,5.867,2.81,9.318,3
		c5.799,0.318,10.635-1.29,14.507-4.827s5.962-8.109,6.27-13.716c0.306-5.561-1.272-10.31-4.733-14.25s-8.09-6.069-13.891-6.388
		c-3.45-0.19-6.647,0.463-9.59,1.96c-2.942,1.497-5.208,3.572-6.796,6.225l-5.641-3.628c2.315-3.621,5.474-6.44,9.478-8.456
		C345.643,933.498,349.946,932.617,354.547,932.87z"/>
	<path d="M289.877,969.621l-6.216-0.774l4.45-35.724l6.216,0.773l-0.766,6.145c3.685-4.329,8.479-6.126,14.385-5.391
		c5.002,0.623,9.038,2.976,12.108,7.059c3.071,4.083,4.28,8.743,3.627,13.983c-0.652,5.239-2.967,9.462-6.946,12.667
		c-3.979,3.204-8.469,4.495-13.471,3.872c-5.905-0.735-10.112-3.653-12.622-8.755L289.877,969.621z M306.413,940.554
		c-3.619-0.45-6.798,0.398-9.532,2.55c-2.735,2.149-4.328,5.035-4.778,8.655c-0.451,3.619,0.385,6.808,2.509,9.563
		s4.996,4.359,8.615,4.81c3.572,0.445,6.727-0.407,9.461-2.558c2.735-2.151,4.328-5.036,4.778-8.656
		c0.451-3.62-0.385-6.808-2.509-9.563S309.985,940.999,306.413,940.554z"/>
	<path d="M237.271,960.557l6.862-35.341l6.008,1.167l-4.981,25.657l14.751-15.912l0.777,0.15l7.725,20.276l4.982-25.656l6.078,1.18
		l-6.862,35.341l-6.573-1.277l-7.624-20.036l-14.569,15.728L237.271,960.557z"/>
	<path d="M206.256,917.843c4.693-2.224,9.531-2.465,14.515-0.722c4.985,1.742,8.608,4.94,10.87,9.597
		c2.263,4.654,2.515,9.498,0.757,14.527c-1.759,5.029-4.973,8.659-9.644,10.892c-4.67,2.231-9.496,2.477-14.481,0.734
		c-4.983-1.742-8.617-4.946-10.903-9.608c-2.285-4.664-2.549-9.51-0.79-14.54C198.337,923.693,201.563,920.066,206.256,917.843z
		 M218.751,922.897c-3.398-1.188-6.656-1.03-9.775,0.473c-3.118,1.503-5.279,3.976-6.483,7.42c-1.204,3.443-1.055,6.725,0.448,9.844
		c1.503,3.118,3.954,5.272,7.352,6.46c3.354,1.173,6.589,1.007,9.708-0.496s5.28-3.977,6.484-7.42
		c1.203-3.444,1.054-6.725-0.449-9.844C224.532,926.216,222.105,924.07,218.751,922.897z"/>
	<path d="M186.439,919.929c1.272-3.019,1.436-5.914,0.489-8.686c-0.945-2.771-2.833-5.104-5.665-7.002
		c-3.948-2.645-7.794-3.113-11.539-1.403l-2.744-5.479c5.931-2.556,11.826-1.87,17.688,2.058c4.746,3.18,7.609,7.249,8.589,12.21
		c0.981,4.961-0.052,9.716-3.098,14.262c-3.019,4.506-6.985,7.279-11.9,8.32c-4.914,1.041-9.684,0.012-14.311-3.088
		c-4.386-2.938-6.93-6.882-7.631-11.829c-0.701-4.947,0.405-9.595,3.316-13.941c0.508-0.758,1.088-1.495,1.742-2.213
		L186.439,919.929z M167.235,926.216c2.792,1.87,5.633,2.632,8.521,2.286c2.891-0.347,5.436-1.688,7.638-4.026l-19.979-13.385
		c-1.458,3.125-1.784,6.026-0.979,8.704C163.244,922.472,164.842,924.613,167.235,926.216z"/>
	<path d="M117.939,849.468c-0.529-3.967,0.948-6.964,4.434-8.99c2.574-1.496,5.18-1.858,7.82-1.09
		c2.641,0.77,4.89,2.752,6.747,5.947l9.046,15.562l-31.124,18.093l-8.322-14.317c-1.81-3.112-2.43-5.971-1.863-8.577
		c0.567-2.605,2.117-4.646,4.648-6.116C112.313,848.241,115.184,848.071,117.939,849.468z M111.54,862.099l5.102,8.777l8.154-4.74
		l-5.102-8.777c-1.833-3.153-4.14-3.923-6.921-2.306C110.119,856.596,109.707,858.945,111.54,862.099z M132.203,848.505
		c-0.917-1.577-1.996-2.573-3.237-2.99c-1.241-0.416-2.547-0.227-3.917,0.569c-1.286,0.747-2.045,1.759-2.277,3.031
		c-0.231,1.272,0.111,2.698,1.027,4.274l5.79,9.96l8.403-4.886L132.203,848.505z"/>
	<path d="M87.284,825.686c-1.801-4.707-1.621-9.375,0.54-14.005c2.161-4.63,5.707-7.888,10.638-9.774
		c4.932-1.887,9.747-1.826,14.445,0.179c4.699,2.006,7.948,5.362,9.749,10.069c2.127,5.56,1.528,10.645-1.795,15.257l19.233-7.357
		l2.238,5.851l-47.073,18.007l-2.238-5.851l5.783-2.212C93.25,834.633,89.411,831.245,87.284,825.686z M117.29,815.055
		c-1.286-3.362-3.521-5.745-6.705-7.148c-3.183-1.403-6.479-1.453-9.886-0.149c-3.406,1.303-5.827,3.54-7.262,6.71
		c-1.434,3.169-1.508,6.436-0.222,9.798c1.304,3.407,3.547,5.812,6.73,7.216c3.184,1.402,6.479,1.452,9.886,0.149
		c3.407-1.304,5.828-3.54,7.262-6.71C118.529,821.75,118.594,818.463,117.29,815.055z"/>
	<path d="M98.466,788.651c3.057-1.18,5.254-3.071,6.593-5.676c1.339-2.604,1.709-5.583,1.109-8.938
		c-0.835-4.678-3.167-7.772-6.997-9.282l2.04-5.776c5.957,2.495,9.554,7.216,10.794,14.162c1.004,5.624,0.062,10.51-2.831,14.658
		c-2.891,4.149-7.031,6.705-12.417,7.667c-5.339,0.953-10.089,0.022-14.249-2.794c-4.16-2.815-6.729-6.965-7.709-12.446
		c-0.928-5.198,0.146-9.766,3.221-13.704c3.076-3.938,7.189-6.367,12.339-7.287c0.898-0.16,1.833-0.254,2.802-0.281L98.466,788.651z
		 M80.611,779.188c0.591,3.308,2.014,5.882,4.269,7.722c2.255,1.84,4.988,2.742,8.199,2.704l-4.229-23.673
		c-3.262,1.119-5.577,2.897-6.946,5.336C80.537,773.715,80.105,776.352,80.611,779.188z"/>
	<path d="M72.909,714.135l35.979,1.23l-0.209,6.117l-26.121-0.894l18.03,12.071l-0.027,0.791l-18.813,10.812l26.121,0.894
		l-0.211,6.188l-35.979-1.23l0.229-6.692l18.592-10.675l-17.819-11.92L72.909,714.135z"/>
	<path d="M82.367,673.391l34.834,9.087l-1.563,5.991l-12.54-3.271l-1.327,5.085l9.996,13.025l-1.926,7.385l-10.235-13.534
		c-1.329,2.433-3.181,4.206-5.555,5.322c-2.375,1.117-4.862,1.336-7.464,0.657c-3.205-0.836-5.578-2.67-7.121-5.504
		c-1.542-2.832-1.866-5.967-0.969-9.405L82.367,673.391z M95.41,692.419l2.254-8.639l-11.217-2.926l-2.253,8.639
		c-0.449,1.719-0.319,3.315,0.388,4.789c0.707,1.475,1.92,2.436,3.638,2.884c1.672,0.436,3.177,0.185,4.513-0.758
		C94.07,695.468,94.962,694.138,95.41,692.419z"/>
	<path d="M150.445,619.74c0.448,5.174-1.013,9.793-4.383,13.856c-3.371,4.064-7.631,6.346-12.784,6.843
		c-5.152,0.498-9.779-0.954-13.88-4.355s-6.383-7.68-6.847-12.835c-0.463-5.154,0.989-9.765,4.36-13.829
		c3.371-4.063,7.64-6.353,12.807-6.87c5.167-0.516,9.802,0.927,13.903,4.328C147.722,610.278,149.997,614.567,150.445,619.74z
		 M141.351,629.689c2.298-2.771,3.287-5.88,2.965-9.326c-0.321-3.447-1.886-6.335-4.694-8.664c-2.807-2.328-5.935-3.333-9.382-3.011
		c-3.447,0.321-6.32,1.867-8.618,4.639c-2.268,2.734-3.241,5.824-2.919,9.271c0.321,3.447,1.887,6.335,4.694,8.664
		c2.809,2.329,5.936,3.332,9.383,3.011C136.226,633.952,139.083,632.425,141.351,629.689z"/>
	<path d="M161.558,571.021l3.602,4.858l-9.833,7.29l17.838,24.061l-5.032,3.73l-17.838-24.061l-9.891,7.333l-3.602-4.858
		L161.558,571.021z"/>
	<path d="M197.994,552.299l15.953,32.271l-5.615,2.775l-13.306-26.914l-16.717,8.264l13.306,26.915L186,598.387l-15.954-32.272
		L197.994,552.299z"/>
	<path d="M227.35,540.002c4.72-1.767,9.386-1.553,14.001,0.641c4.613,2.194,7.846,5.764,9.697,10.708
		c1.851,4.945,1.756,9.76-0.283,14.443c-2.04,4.685-5.419,7.91-10.139,9.677c-5.575,2.087-10.656,1.452-15.243-1.905l7.219,19.285
		l-5.866,2.196l-17.669-47.201l5.866-2.196l2.171,5.799C218.359,545.904,221.774,542.089,227.35,540.002z M237.764,570.084
		c3.372-1.262,5.771-3.479,7.196-6.652c1.427-3.173,1.5-6.468,0.221-9.885c-1.278-3.416-3.497-5.853-6.657-7.311
		c-3.158-1.456-6.424-1.555-9.796-0.292c-3.417,1.278-5.838,3.505-7.264,6.678c-1.426,3.174-1.499,6.469-0.221,9.885
		c1.279,3.417,3.498,5.854,6.657,7.311S234.347,571.363,237.764,570.084z"/>
	<path d="M279.317,521.137l5.805-2.354l13.531,33.36l-5.805,2.354l-2.327-5.738c-1.105,5.576-4.416,9.483-9.931,11.721
		c-4.671,1.895-9.342,1.808-14.014-0.26s-8-5.547-9.984-10.44c-1.984-4.893-2.022-9.708-0.11-14.446
		c1.911-4.738,5.202-8.054,9.873-9.948c5.515-2.237,10.611-1.74,15.289,1.49L279.317,521.137z M279.051,554.577
		c3.38-1.371,5.741-3.662,7.08-6.873c1.34-3.211,1.323-6.507-0.048-9.888c-1.371-3.38-3.655-5.755-6.854-7.126
		c-3.197-1.37-6.487-1.37-9.867,0.001c-3.336,1.353-5.674,3.636-7.013,6.846c-1.339,3.212-1.323,6.508,0.048,9.888
		s3.655,5.756,6.854,7.126C272.448,555.922,275.715,555.93,279.051,554.577z"/>
	<path d="M322.57,517.044c3.947-0.664,6.992,0.71,9.137,4.125c1.583,2.521,2.034,5.113,1.356,7.778
		c-0.679,2.665-2.584,4.98-5.714,6.945l-15.243,9.572l-19.145-30.487l14.023-8.807c3.049-1.914,5.885-2.632,8.509-2.155
		c2.624,0.479,4.715,1.958,6.271,4.437C323.604,511.379,323.872,514.243,322.57,517.044z M309.729,511.08l-8.598,5.399l5.016,7.987
		l8.598-5.398c3.089-1.94,3.779-4.271,2.069-6.996C315.18,509.472,312.817,509.141,309.729,511.08z M324.021,531.268
		c1.544-0.971,2.503-2.083,2.878-3.338c0.373-1.255,0.14-2.554-0.703-3.895c-0.791-1.26-1.827-1.983-3.107-2.173
		c-1.279-0.187-2.692,0.203-4.236,1.173l-9.756,6.127l5.169,8.231L324.021,531.268z"/>
	<path d="M339.619,476.07l3.357-3.759l26.851,23.98l-4.125,4.619l-18.849-16.834l5.563,31.709l-3.357,3.76l-26.85-23.98l4.124-4.619
		l18.85,16.834L339.619,476.07z"/>
	<path d="M360.028,441.39l5.329,2.859l-5.787,10.786l26.393,14.162l-2.961,5.52l-26.394-14.162l-5.82,10.849l-5.33-2.86
		L360.028,441.39z"/>
	<path d="M378.351,426.251c1.053-3.442,2.948-5.987,5.686-7.635c2.737-1.647,5.735-1.973,8.994-0.976
		c3.26,0.997,5.563,2.943,6.91,5.84c1.349,2.896,1.495,6.066,0.442,9.509l-4.442,14.528l-34.426-10.528l1.831-5.99l12.394,3.79
		L378.351,426.251z M394.806,431.283c0.52-1.697,0.466-3.283-0.164-4.756c-0.628-1.472-1.77-2.461-3.422-2.966
		s-3.162-0.327-4.53,0.535c-1.367,0.862-2.312,2.142-2.831,3.84l-2.61,8.538l10.947,3.348L394.806,431.283z"/>
	<path d="M408.979,391.188c-0.493,5.402-2.706,9.73-6.644,12.986c-3.936,3.256-8.58,4.639-13.935,4.151
		c-5.354-0.489-9.671-2.69-12.953-6.604s-4.677-8.572-4.184-13.974c0.322-3.537,1.462-6.638,3.415-9.304
		c1.955-2.665,4.429-4.56,7.424-5.685l2.534,5.509c-1.995,0.734-3.652,1.993-4.972,3.776c-1.32,1.784-2.089,3.871-2.307,6.26
		c-0.327,3.585,0.618,6.697,2.835,9.333c2.218,2.637,5.144,4.12,8.776,4.452c3.585,0.327,6.706-0.604,9.364-2.796
		c2.658-2.191,4.151-5.08,4.479-8.665c0.218-2.39-0.147-4.592-1.097-6.607c-0.947-2.014-2.333-3.611-4.153-4.789l3.567-5.025
		c2.682,1.788,4.739,4.192,6.174,7.215C408.739,384.441,409.298,387.699,408.979,391.188z"/>
	<path d="M370.672,339.424l35.848-3.302l0.568,6.166l-12.905,1.188l0.481,5.234l13.83,8.849l0.7,7.6l-14.228-9.246
		c-0.423,2.739-1.561,5.037-3.414,6.895c-1.854,1.858-4.118,2.91-6.795,3.156c-3.299,0.304-6.154-0.613-8.569-2.753
		c-2.413-2.139-3.784-4.977-4.11-8.515L370.672,339.424z M389.409,352.882l-0.819-8.891l-11.543,1.063l0.819,8.891
		c0.163,1.769,0.828,3.226,1.993,4.372c1.166,1.146,2.634,1.637,4.401,1.474c1.721-0.158,3.051-0.907,3.987-2.247
		C389.186,356.205,389.572,354.651,389.409,352.882z"/>
	<path d="M374.426,285.322c0.326-3.989,2.407-6.604,6.244-7.843c2.832-0.915,5.456-0.715,7.872,0.597
		c2.417,1.313,4.193,3.729,5.329,7.245l5.531,17.129l-34.257,11.064l-5.09-15.758c-1.106-3.426-1.105-6.351,0.003-8.778
		c1.107-2.425,3.056-4.089,5.841-4.989C369.188,282.928,372.03,283.372,374.426,285.322z M365.488,296.304l3.12,9.661l8.976-2.898
		l-3.12-9.661c-1.121-3.471-3.212-4.713-6.272-3.725C365.269,290.625,364.367,292.833,365.488,296.304z M388.568,287.413
		c-0.561-1.735-1.402-2.938-2.527-3.61c-1.124-0.67-2.44-0.763-3.948-0.276c-1.415,0.457-2.372,1.284-2.869,2.478
		c-0.496,1.195-0.465,2.66,0.096,4.396l3.54,10.962l9.25-2.987L388.568,287.413z"/>
	<path d="M316.854,225.849l26.032-24.866l4.326,4.529l-21.71,20.739l12.881,13.484l21.71-20.739l4.327,4.53l-26.032,24.866
		L316.854,225.849z"/>
	<path d="M293.764,181.745c4.832-1.905,9.675-1.822,14.531,0.25c4.857,2.072,8.258,5.505,10.204,10.302
		c1.945,4.796,1.873,9.645-0.218,14.545c-2.091,4.901-5.541,8.308-10.35,10.223c-4.809,1.914-9.642,1.836-14.498-0.236
		c-4.856-2.072-8.268-5.511-10.237-10.317c-1.967-4.806-1.906-9.659,0.185-14.56C285.472,187.053,288.934,183.649,293.764,181.745z
		 M305.894,187.625c-3.312-1.413-6.573-1.474-9.785-0.183c-3.213,1.291-5.534,3.614-6.966,6.97
		c-1.432,3.354-1.502,6.639-0.211,9.851c1.291,3.212,3.592,5.525,6.903,6.938c3.268,1.395,6.507,1.445,9.719,0.155
		c3.213-1.291,5.535-3.615,6.966-6.97c1.432-3.356,1.502-6.639,0.211-9.852S309.161,189.019,305.894,187.625z"/>
	<path d="M272.253,185.558c0.482-3.241-0.08-6.086-1.686-8.534c-1.605-2.449-4.015-4.24-7.229-5.374
		c-4.481-1.58-8.323-1.077-11.525,1.51l-4.02-4.623c5.108-3.951,10.989-4.753,17.644-2.407c5.388,1.899,9.174,5.129,11.356,9.691
		c2.185,4.561,2.365,9.423,0.546,14.583c-1.803,5.115-4.955,8.788-9.457,11.018c-4.501,2.23-9.377,2.42-14.629,0.568
		c-4.979-1.755-8.424-4.942-10.334-9.56c-1.909-4.618-1.994-9.394-0.255-14.328c0.304-0.86,0.683-1.719,1.138-2.577L272.253,185.558
		z M255.216,196.423c3.169,1.117,6.11,1.148,8.822,0.095c2.713-1.055,4.845-2.987,6.396-5.799l-22.68-7.996
		c-0.634,3.39-0.229,6.281,1.218,8.674C250.418,193.79,252.499,195.466,255.216,196.423z"/>
	<path d="M214.522,172.554c-3.621-2.329-5.061-5.5-4.319-9.511c0.549-2.974,2.194-5.269,4.934-6.886
		c2.74-1.617,6.28-2.024,10.623-1.222c7.08,1.309,11.3,5.017,12.66,11.126l-5.73,2.089c-0.653-4.124-3.34-6.621-8.061-7.494
		c-2.359-0.436-4.282-0.268-5.769,0.508c-1.485,0.774-2.377,1.964-2.673,3.569c-0.262,1.416,0.056,2.67,0.951,3.764
		c0.896,1.092,2.242,1.806,4.035,2.137l5.168,0.956l-1.033,5.593l-3.823-0.707c-1.793-0.332-3.267-0.153-4.42,0.538
		c-1.152,0.689-1.868,1.79-2.147,3.301c-0.278,1.51,0.073,2.844,1.055,4.002c0.982,1.158,2.488,1.924,4.518,2.299
		c3.965,0.733,6.965-0.446,9-3.535l4.49,3.832c-3.461,4.729-8.307,6.519-14.537,5.367c-3.87-0.715-6.743-2.271-8.619-4.668
		c-1.875-2.396-2.548-5.036-2.016-7.914C209.472,176.111,211.376,173.729,214.522,172.554z"/>
	<path d="M170.192,156.224l-4.959-0.296l0.932-15.596l6.181,0.37l-0.576,9.631l26.952,1.611l0.575-9.631l6.182,0.37l-0.933,15.596
		l-4.384-0.262c-2.489,3.025-3.904,7.388-4.245,13.09l-0.996,16.674l-26.521-1.585L170.192,156.224z M193.048,157.59l-16.675-0.997
		l-1.443,24.149l14.159,0.846l0.648-10.853C190.058,165.369,191.162,160.987,193.048,157.59z"/>
	<path d="M125.684,150.952l7.773-0.206l16.862,16.624l-0.452-17.058l6.262-0.166l0.953,35.987l-6.262,0.166l-0.421-15.906
		l-15.125,16.318l-8.061,0.213l16.741-17.873L125.684,150.952z"/>
	<path d="M96.131,189.671l-6.668,0.607l11.164-39.406c1.161-4.202,3.03-7.493,5.608-9.873c2.579-2.379,5.648-3.61,9.207-3.693
		l0.528,5.808c-4.428,0.066-7.437,2.75-9.027,8.051l-0.456,1.343l18.828,34.508l-6.597,0.6l-14.819-26.992L96.131,189.671z"/>
	<path d="M75.641,155.224c1.285-0.174,2.44,0.131,3.466,0.912c1.026,0.781,1.625,1.814,1.799,3.099
		c0.174,1.284-0.13,2.439-0.912,3.465c-0.781,1.025-1.814,1.626-3.099,1.799c-1.332,0.18-2.499-0.123-3.501-0.907
		c-1.002-0.785-1.59-1.819-1.764-3.104s0.119-2.439,0.876-3.461C73.265,156.006,74.31,155.404,75.641,155.224z M80.08,170.317
		l4.203,20.865l1.93,14.271l-7.492,1.013l-1.93-14.27l-1.491-21.232L80.08,170.317z"/>
</g>
</svg>
